<mxfile host="65bd71144e" scale="1" border="60">
    <diagram id="S-b7Yi5fMgmGWbkXTeDW" name="Page-1">
        <mxGraphModel dx="1169" dy="2929" grid="1" gridSize="10" guides="1" tooltips="1" connect="1" arrows="1" fold="1" page="1" pageScale="1" pageWidth="850" pageHeight="1100" background="#ffffff" math="0" shadow="0">
            <root>
                <mxCell id="0"/>
                <mxCell id="1" parent="0"/>
                <mxCell id="220" value="" style="group" parent="1" vertex="1" connectable="0">
                    <mxGeometry x="180" y="-1747.42" width="1520" height="1010" as="geometry"/>
                </mxCell>
                <mxCell id="221" value="" style="whiteSpace=wrap;html=1;fontSize=24;fillColor=none;strokeColor=#BC1356;strokeWidth=8;" parent="220" vertex="1">
                    <mxGeometry width="1519.9999999999998" height="1009.9999999999999" as="geometry"/>
                </mxCell>
                <mxCell id="222" value="" style="group;" parent="220" vertex="1" connectable="0">
                    <mxGeometry width="84.5913043478261" height="64" as="geometry"/>
                </mxCell>
                <mxCell id="223" value="" style="whiteSpace=wrap;html=1;labelBackgroundColor=none;fillStyle=auto;strokeColor=none;strokeWidth=5;fontSize=24;fillColor=#BC1356;gradientColor=none;" parent="222" vertex="1">
                    <mxGeometry width="84.5913043478261" height="64" as="geometry"/>
                </mxCell>
                <mxCell id="224" value="" style="sketch=0;outlineConnect=0;fontColor=#232F3E;gradientColor=none;fillColor=default;strokeColor=none;dashed=0;verticalLabelPosition=bottom;verticalAlign=top;align=center;html=1;fontSize=12;fontStyle=0;aspect=fixed;pointerEvents=1;shape=mxgraph.aws4.organizations_account2;labelBackgroundColor=none;fillStyle=auto;strokeWidth=5;" parent="222" vertex="1">
                    <mxGeometry x="13.481739130434782" y="10.2" width="43.6" height="43.6" as="geometry"/>
                </mxCell>
                <mxCell id="225" value="Account #1" style="text;strokeColor=none;align=left;fillColor=none;html=1;verticalAlign=middle;whiteSpace=wrap;rounded=0;shadow=0;sketch=0;strokeWidth=5;fontSize=40;fontColor=default;fontStyle=1" parent="220" vertex="1">
                    <mxGeometry x="105.73913043478261" y="-2.58" width="417.93391304347824" height="69.17" as="geometry"/>
                </mxCell>
                <mxCell id="226" value="RAM" style="sketch=0;points=[[0,0,0],[0.25,0,0],[0.5,0,0],[0.75,0,0],[1,0,0],[0,1,0],[0.25,1,0],[0.5,1,0],[0.75,1,0],[1,1,0],[0,0.25,0],[0,0.5,0],[0,0.75,0],[1,0.25,0],[1,0.5,0],[1,0.75,0]];outlineConnect=0;fontColor=#232F3E;gradientColor=#F54749;gradientDirection=north;fillColor=#C7131F;strokeColor=#ffffff;dashed=0;verticalLabelPosition=bottom;verticalAlign=top;align=center;html=1;fontSize=32;fontStyle=0;aspect=fixed;shape=mxgraph.aws4.resourceIcon;resIcon=mxgraph.aws4.resource_access_manager;" parent="220" vertex="1">
                    <mxGeometry x="127.6386325921009" y="205.45000000000005" width="128" height="128" as="geometry"/>
                </mxCell>
                <mxCell id="227" value="app1.awscloud.private" style="sketch=0;outlineConnect=0;fontColor=#232F3E;gradientColor=none;fillColor=#4D27AA;strokeColor=none;dashed=0;verticalLabelPosition=bottom;verticalAlign=top;align=center;html=1;fontSize=32;fontStyle=0;pointerEvents=1;shape=mxgraph.aws4.hosted_zone;aspect=fixed;" parent="220" vertex="1">
                    <mxGeometry x="638.1679389312976" y="167.42055555555544" width="64" height="64" as="geometry"/>
                </mxCell>
                <mxCell id="228" value="Amazon Provided DNS" style="sketch=0;outlineConnect=0;fontColor=#232F3E;gradientColor=none;fillColor=#4D27AA;strokeColor=none;dashed=0;verticalLabelPosition=bottom;verticalAlign=top;align=center;html=1;fontSize=24;fontStyle=0;aspect=fixed;pointerEvents=1;shape=mxgraph.aws4.route_table;shadow=0;strokeWidth=5;" parent="220" vertex="1">
                    <mxGeometry x="1109.998199339505" y="585.42" width="64" height="62.36" as="geometry"/>
                </mxCell>
                <mxCell id="166" value="" style="group" parent="1" vertex="1" connectable="0">
                    <mxGeometry x="1890" y="-1744.8400000000001" width="1520" height="1010" as="geometry"/>
                </mxCell>
                <mxCell id="167" value="" style="whiteSpace=wrap;html=1;fontSize=24;fillColor=none;strokeColor=#BC1356;strokeWidth=8;" parent="166" vertex="1">
                    <mxGeometry width="1519.9999999999998" height="1009.9999999999999" as="geometry"/>
                </mxCell>
                <mxCell id="168" value="" style="group;" parent="166" vertex="1" connectable="0">
                    <mxGeometry width="84.5913043478261" height="64" as="geometry"/>
                </mxCell>
                <mxCell id="169" value="" style="whiteSpace=wrap;html=1;labelBackgroundColor=none;fillStyle=auto;strokeColor=none;strokeWidth=5;fontSize=24;fillColor=#BC1356;gradientColor=none;" parent="168" vertex="1">
                    <mxGeometry width="84.5913043478261" height="64" as="geometry"/>
                </mxCell>
                <mxCell id="170" value="" style="sketch=0;outlineConnect=0;fontColor=#232F3E;gradientColor=none;fillColor=default;strokeColor=none;dashed=0;verticalLabelPosition=bottom;verticalAlign=top;align=center;html=1;fontSize=12;fontStyle=0;aspect=fixed;pointerEvents=1;shape=mxgraph.aws4.organizations_account2;labelBackgroundColor=none;fillStyle=auto;strokeWidth=5;" parent="168" vertex="1">
                    <mxGeometry x="13.481739130434782" y="10.2" width="43.6" height="43.6" as="geometry"/>
                </mxCell>
                <mxCell id="171" value="Account #2" style="text;strokeColor=none;align=left;fillColor=none;html=1;verticalAlign=middle;whiteSpace=wrap;rounded=0;shadow=0;sketch=0;strokeWidth=5;fontSize=40;fontColor=default;fontStyle=1" parent="166" vertex="1">
                    <mxGeometry x="105.73913043478261" y="-2.58" width="417.93391304347824" height="69.17" as="geometry"/>
                </mxCell>
                <mxCell id="172" value="RAM" style="sketch=0;points=[[0,0,0],[0.25,0,0],[0.5,0,0],[0.75,0,0],[1,0,0],[0,1,0],[0.25,1,0],[0.5,1,0],[0.75,1,0],[1,1,0],[0,0.25,0],[0,0.5,0],[0,0.75,0],[1,0.25,0],[1,0.5,0],[1,0.75,0]];outlineConnect=0;fontColor=#232F3E;gradientColor=#F54749;gradientDirection=north;fillColor=#C7131F;strokeColor=#ffffff;dashed=0;verticalLabelPosition=bottom;verticalAlign=top;align=center;html=1;fontSize=32;fontStyle=0;aspect=fixed;shape=mxgraph.aws4.resourceIcon;resIcon=mxgraph.aws4.resource_access_manager;" parent="166" vertex="1">
                    <mxGeometry x="127.6386325921009" y="205.45000000000005" width="128" height="128" as="geometry"/>
                </mxCell>
                <mxCell id="180" value="app1.awscloud.private" style="sketch=0;outlineConnect=0;fontColor=#232F3E;gradientColor=none;fillColor=#4D27AA;strokeColor=none;dashed=0;verticalLabelPosition=bottom;verticalAlign=top;align=center;html=1;fontSize=32;fontStyle=0;pointerEvents=1;shape=mxgraph.aws4.hosted_zone;aspect=fixed;" parent="166" vertex="1">
                    <mxGeometry x="638.1679389312976" y="167.42055555555544" width="64" height="64" as="geometry"/>
                </mxCell>
                <mxCell id="177" value="Amazon Provided DNS" style="sketch=0;outlineConnect=0;fontColor=#232F3E;gradientColor=none;fillColor=#4D27AA;strokeColor=none;dashed=0;verticalLabelPosition=bottom;verticalAlign=top;align=center;html=1;fontSize=24;fontStyle=0;aspect=fixed;pointerEvents=1;shape=mxgraph.aws4.route_table;shadow=0;strokeWidth=5;" parent="166" vertex="1">
                    <mxGeometry x="1139.9979156515617" y="582.8399999999999" width="64" height="62.36" as="geometry"/>
                </mxCell>
                <mxCell id="181" value="Resolver Rules" style="sketch=0;outlineConnect=0;fontColor=#232F3E;gradientColor=none;fillColor=#4D27AA;strokeColor=none;dashed=0;verticalLabelPosition=bottom;verticalAlign=top;align=center;html=1;fontSize=32;fontStyle=0;aspect=fixed;pointerEvents=1;shape=mxgraph.aws4.route_53_resolver;" parent="166" vertex="1">
                    <mxGeometry x="1060" y="224.8405555555555" width="64" height="64" as="geometry"/>
                </mxCell>
                <mxCell id="182" value="app2.awscloud.private" style="sketch=0;outlineConnect=0;fontColor=#232F3E;gradientColor=none;fillColor=#4D27AA;strokeColor=none;dashed=0;verticalLabelPosition=bottom;verticalAlign=top;align=center;html=1;fontSize=32;fontStyle=0;pointerEvents=1;shape=mxgraph.aws4.hosted_zone;aspect=fixed;" parent="166" vertex="1">
                    <mxGeometry x="640" y="304.84388888888884" width="64" height="63.11" as="geometry"/>
                </mxCell>
                <mxCell id="83" value="" style="whiteSpace=wrap;html=1;fontSize=24;fillColor=none;strokeColor=#BC1356;strokeWidth=8;" parent="1" vertex="1">
                    <mxGeometry x="180" y="-600" width="2180" height="890" as="geometry"/>
                </mxCell>
                <mxCell id="32" value="" style="whiteSpace=wrap;html=1;fontSize=32;fillColor=none;strokeColor=#C7131F;strokeWidth=5;" parent="1" vertex="1">
                    <mxGeometry x="280" y="-460" width="540" height="250" as="geometry"/>
                </mxCell>
                <mxCell id="4" value="app1.awscloud.private" style="sketch=0;outlineConnect=0;fontColor=#232F3E;gradientColor=none;fillColor=#4D27AA;strokeColor=none;dashed=0;verticalLabelPosition=bottom;verticalAlign=top;align=center;html=1;fontSize=32;fontStyle=1;pointerEvents=1;shape=mxgraph.aws4.hosted_zone;" parent="1" vertex="1">
                    <mxGeometry x="1065" y="-170" width="96" height="96" as="geometry"/>
                </mxCell>
                <mxCell id="7" value="Resolver Rules" style="sketch=0;outlineConnect=0;fontColor=#232F3E;gradientColor=none;fillColor=#4D27AA;strokeColor=none;dashed=0;verticalLabelPosition=bottom;verticalAlign=top;align=center;html=1;fontSize=32;fontStyle=1;aspect=fixed;pointerEvents=1;shape=mxgraph.aws4.route_53_resolver;" parent="1" vertex="1">
                    <mxGeometry x="513.5" y="80" width="78" height="78" as="geometry"/>
                </mxCell>
                <mxCell id="8" value="" style="points=[[0,0],[0.25,0],[0.5,0],[0.75,0],[1,0],[1,0.25],[1,0.5],[1,0.75],[1,1],[0.75,1],[0.5,1],[0.25,1],[0,1],[0,0.75],[0,0.5],[0,0.25]];outlineConnect=0;gradientColor=none;html=1;whiteSpace=wrap;fontSize=32;fontStyle=0;container=1;pointerEvents=0;collapsible=0;recursiveResize=0;shape=mxgraph.aws4.group;grIcon=mxgraph.aws4.group_vpc;strokeColor=#248814;fillColor=none;verticalAlign=top;align=left;spacingLeft=30;fontColor=default;dashed=0;strokeWidth=5;shadow=0;expand=1;" parent="1" vertex="1">
                    <mxGeometry x="1425" y="-460" width="830" height="640" as="geometry"/>
                </mxCell>
                <mxCell id="9" value="" style="sketch=0;points=[[0,0,0],[0.25,0,0],[0.5,0,0],[0.75,0,0],[1,0,0],[0,1,0],[0.25,1,0],[0.5,1,0],[0.75,1,0],[1,1,0],[0,0.25,0],[0,0.5,0],[0,0.75,0],[1,0.25,0],[1,0.5,0],[1,0.75,0]];outlineConnect=0;fontColor=#232F3E;gradientColor=none;gradientDirection=north;fillColor=#248814;strokeColor=#ffffff;dashed=0;verticalLabelPosition=bottom;verticalAlign=top;align=center;html=1;fontSize=32;fontStyle=0;aspect=fixed;shape=mxgraph.aws4.resourceIcon;resIcon=mxgraph.aws4.vpc;strokeWidth=5;" parent="8" vertex="1">
                    <mxGeometry x="2" y="2" width="64" height="64" as="geometry"/>
                </mxCell>
                <mxCell id="11" value="VPC Endpoints" style="sketch=0;outlineConnect=0;fontColor=#232F3E;gradientColor=none;fillColor=#4D27AA;strokeColor=none;dashed=0;verticalLabelPosition=bottom;verticalAlign=top;align=center;html=1;fontSize=32;fontStyle=1;aspect=fixed;pointerEvents=1;shape=mxgraph.aws4.endpoints;shadow=0;strokeWidth=5;" parent="8" vertex="1">
                    <mxGeometry x="140" y="480" width="88" height="88" as="geometry"/>
                </mxCell>
                <mxCell id="213" style="edgeStyle=none;rounded=1;html=1;strokeColor=#009900;strokeWidth=8;fontSize=32;startSize=12;endSize=12;targetPerimeterSpacing=20;sourcePerimeterSpacing=20;" parent="8" source="13" target="209" edge="1">
                    <mxGeometry relative="1" as="geometry"/>
                </mxCell>
                <mxCell id="13" value="Resolver Inbound" style="sketch=0;outlineConnect=0;fontColor=#232F3E;gradientColor=none;fillColor=#4D27AA;strokeColor=none;dashed=0;verticalLabelPosition=bottom;verticalAlign=top;align=center;html=1;fontSize=32;fontStyle=1;aspect=fixed;pointerEvents=1;shape=mxgraph.aws4.elastic_network_interface;shadow=0;strokeWidth=5;" parent="8" vertex="1">
                    <mxGeometry x="491" y="92" width="128" height="128" as="geometry"/>
                </mxCell>
                <mxCell id="14" value="Resolver Outbound" style="sketch=0;outlineConnect=0;fontColor=#232F3E;gradientColor=none;fillColor=#4D27AA;strokeColor=none;dashed=0;verticalLabelPosition=bottom;verticalAlign=top;align=center;html=1;fontSize=32;fontStyle=1;aspect=fixed;pointerEvents=1;shape=mxgraph.aws4.elastic_network_interface;shadow=0;strokeWidth=5;" parent="8" vertex="1">
                    <mxGeometry x="491" y="348" width="128" height="128" as="geometry"/>
                </mxCell>
                <mxCell id="19" value="CentralDNS" style="text;strokeColor=none;align=left;fillColor=none;html=1;verticalAlign=middle;whiteSpace=wrap;rounded=0;shadow=0;sketch=0;strokeWidth=5;fontSize=32;fontColor=default;fontStyle=1" parent="8" vertex="1">
                    <mxGeometry x="80" y="19" width="140" height="30" as="geometry"/>
                </mxCell>
                <mxCell id="209" value="Amazon Provided&lt;br&gt;DNS" style="sketch=0;outlineConnect=0;fontColor=#232F3E;gradientColor=none;fillColor=#4D27AA;strokeColor=none;dashed=0;verticalLabelPosition=bottom;verticalAlign=top;align=center;html=1;fontSize=32;fontStyle=0;aspect=fixed;pointerEvents=1;shape=mxgraph.aws4.route_table;shadow=0;strokeWidth=5;" parent="8" vertex="1">
                    <mxGeometry x="145" y="129" width="64" height="62.36" as="geometry"/>
                </mxCell>
                <mxCell id="22" value="app2.awscloud.private" style="sketch=0;outlineConnect=0;fontColor=#232F3E;gradientColor=none;fillColor=#4D27AA;strokeColor=none;dashed=0;verticalLabelPosition=bottom;verticalAlign=top;align=center;html=1;fontSize=32;fontStyle=1;pointerEvents=1;shape=mxgraph.aws4.hosted_zone;aspect=fixed;" parent="1" vertex="1">
                    <mxGeometry x="1065" y="-364" width="96" height="96" as="geometry"/>
                </mxCell>
                <mxCell id="2" value="Route53 Profile" style="sketch=0;points=[[0,0,0],[0.25,0,0],[0.5,0,0],[0.75,0,0],[1,0,0],[0,1,0],[0.25,1,0],[0.5,1,0],[0.75,1,0],[1,1,0],[0,0.25,0],[0,0.5,0],[0,0.75,0],[1,0.25,0],[1,0.5,0],[1,0.75,0]];outlineConnect=0;fontColor=#232F3E;gradientColor=#945DF2;gradientDirection=north;fillColor=#5A30B5;strokeColor=#ffffff;dashed=0;verticalLabelPosition=bottom;verticalAlign=top;align=center;html=1;fontSize=32;fontStyle=1;aspect=fixed;shape=mxgraph.aws4.resourceIcon;resIcon=mxgraph.aws4.route_53;" parent="1" vertex="1">
                    <mxGeometry x="506" y="-380" width="78" height="78" as="geometry"/>
                </mxCell>
                <mxCell id="31" value="" style="sketch=0;points=[[0,0,0],[0.25,0,0],[0.5,0,0],[0.75,0,0],[1,0,0],[0,1,0],[0.25,1,0],[0.5,1,0],[0.75,1,0],[1,1,0],[0,0.25,0],[0,0.5,0],[0,0.75,0],[1,0.25,0],[1,0.5,0],[1,0.75,0]];outlineConnect=0;fontColor=#232F3E;gradientColor=#F54749;gradientDirection=north;fillColor=#C7131F;strokeColor=#ffffff;dashed=0;verticalLabelPosition=bottom;verticalAlign=top;align=center;html=1;fontSize=32;fontStyle=0;aspect=fixed;shape=mxgraph.aws4.resourceIcon;resIcon=mxgraph.aws4.resource_access_manager;" parent="1" vertex="1">
                    <mxGeometry x="280" y="-460" width="64" height="64" as="geometry"/>
                </mxCell>
                <mxCell id="33" value="RAM (Share Resource)" style="text;strokeColor=none;align=left;fillColor=none;html=1;verticalAlign=middle;whiteSpace=wrap;rounded=0;shadow=0;sketch=0;strokeWidth=5;fontSize=32;fontColor=default;fontStyle=0" parent="1" vertex="1">
                    <mxGeometry x="355" y="-443" width="390" height="30" as="geometry"/>
                </mxCell>
                <mxCell id="82" value="" style="group" parent="1" vertex="1" connectable="0">
                    <mxGeometry x="180" y="-600" width="70" height="70" as="geometry"/>
                </mxCell>
                <mxCell id="80" value="" style="whiteSpace=wrap;html=1;labelBackgroundColor=none;fillStyle=auto;strokeColor=none;strokeWidth=5;fontSize=24;fillColor=#BC1356;gradientColor=none;" parent="82" vertex="1">
                    <mxGeometry width="70" height="70" as="geometry"/>
                </mxCell>
                <mxCell id="79" value="" style="sketch=0;outlineConnect=0;fontColor=#232F3E;gradientColor=none;fillColor=default;strokeColor=none;dashed=0;verticalLabelPosition=bottom;verticalAlign=top;align=center;html=1;fontSize=12;fontStyle=0;aspect=fixed;pointerEvents=1;shape=mxgraph.aws4.organizations_account2;labelBackgroundColor=none;fillStyle=auto;strokeWidth=5;" parent="82" vertex="1">
                    <mxGeometry x="7" y="7" width="54.60000000000001" height="54.60000000000001" as="geometry"/>
                </mxCell>
                <mxCell id="84" value="SharedService" style="text;strokeColor=none;align=left;fillColor=none;html=1;verticalAlign=middle;whiteSpace=wrap;rounded=0;shadow=0;sketch=0;strokeWidth=5;fontSize=40;fontColor=default;fontStyle=1" parent="1" vertex="1">
                    <mxGeometry x="260" y="-590" width="170" height="50" as="geometry"/>
                </mxCell>
                <mxCell id="173" value="" style="points=[[0,0],[0.25,0],[0.5,0],[0.75,0],[1,0],[1,0.25],[1,0.5],[1,0.75],[1,1],[0.75,1],[0.5,1],[0.25,1],[0,1],[0,0.75],[0,0.5],[0,0.25]];outlineConnect=0;gradientColor=none;html=1;whiteSpace=wrap;fontSize=32;fontStyle=1;container=1;pointerEvents=0;collapsible=0;recursiveResize=0;shape=mxgraph.aws4.group;grIcon=mxgraph.aws4.group_vpc;strokeColor=#248814;fillColor=none;verticalAlign=top;align=left;spacingLeft=30;fontColor=default;dashed=0;strokeWidth=5;shadow=0;expand=1;" parent="1" vertex="1">
                    <mxGeometry x="2220" y="-1214.84" width="1000" height="416.81" as="geometry"/>
                </mxCell>
                <mxCell id="174" value="" style="sketch=0;points=[[0,0,0],[0.25,0,0],[0.5,0,0],[0.75,0,0],[1,0,0],[0,1,0],[0.25,1,0],[0.5,1,0],[0.75,1,0],[1,1,0],[0,0.25,0],[0,0.5,0],[0,0.75,0],[1,0.25,0],[1,0.5,0],[1,0.75,0]];outlineConnect=0;fontColor=#232F3E;gradientColor=none;gradientDirection=north;fillColor=#248814;strokeColor=#ffffff;dashed=0;verticalLabelPosition=bottom;verticalAlign=top;align=center;html=1;fontSize=24;fontStyle=0;aspect=fixed;shape=mxgraph.aws4.resourceIcon;resIcon=mxgraph.aws4.vpc;strokeWidth=5;" parent="173" vertex="1">
                    <mxGeometry x="2" y="1.9722222222222223" width="64" height="64" as="geometry"/>
                </mxCell>
                <mxCell id="175" value="Workload" style="text;strokeColor=none;align=left;fillColor=none;html=1;verticalAlign=middle;whiteSpace=wrap;rounded=0;shadow=0;sketch=0;strokeWidth=5;fontSize=32;fontColor=default;fontStyle=0" parent="173" vertex="1">
                    <mxGeometry x="80" y="16.177222222222223" width="180" height="29.583333333333336" as="geometry"/>
                </mxCell>
                <mxCell id="176" value="host.app2.awscloud.private" style="sketch=0;outlineConnect=0;fontColor=#232F3E;gradientColor=none;fillColor=#D45B07;strokeColor=none;dashed=0;verticalLabelPosition=bottom;verticalAlign=top;align=center;html=1;fontSize=32;fontStyle=1;aspect=fixed;pointerEvents=1;shape=mxgraph.aws4.instance2;strokeWidth=3;" parent="173" vertex="1">
                    <mxGeometry x="311" y="186.81" width="128" height="128" as="geometry"/>
                </mxCell>
                <mxCell id="178" value="" style="whiteSpace=wrap;html=1;strokeColor=#945DF2;strokeWidth=5;fontSize=32;fillColor=none;" parent="1" vertex="1">
                    <mxGeometry x="2220" y="-1655.95" width="1000" height="361.11" as="geometry"/>
                </mxCell>
                <mxCell id="179" value="&amp;nbsp;Route53 Profile (Shared)" style="sketch=0;points=[[0,0,0],[0.25,0,0],[0.5,0,0],[0.75,0,0],[1,0,0],[0,1,0],[0.25,1,0],[0.5,1,0],[0.75,1,0],[1,1,0],[0,0.25,0],[0,0.5,0],[0,0.75,0],[1,0.25,0],[1,0.5,0],[1,0.75,0]];outlineConnect=0;fontColor=#232F3E;gradientColor=#945DF2;gradientDirection=north;fillColor=#5A30B5;strokeColor=#ffffff;dashed=0;verticalLabelPosition=middle;verticalAlign=middle;align=left;html=1;fontSize=32;fontStyle=0;aspect=fixed;shape=mxgraph.aws4.resourceIcon;resIcon=mxgraph.aws4.route_53;labelPosition=right;" parent="1" vertex="1">
                    <mxGeometry x="2220" y="-1655.95" width="64" height="64" as="geometry"/>
                </mxCell>
                <mxCell id="183" style="edgeStyle=none;html=1;fontSize=24;fontColor=default;targetPerimeterSpacing=40;sourcePerimeterSpacing=40;strokeWidth=15;strokeColor=#9933FF;startArrow=classic;startFill=1;rounded=1;" parent="1" edge="1">
                    <mxGeometry relative="1" as="geometry">
                        <mxPoint x="2895" y="-1154.8400000000001" as="targetPoint"/>
                        <mxPoint x="2895" y="-1354.8400000000001" as="sourcePoint"/>
                    </mxGeometry>
                </mxCell>
                <mxCell id="184" value="Association" style="text;align=center;html=1;verticalAlign=middle;whiteSpace=wrap;rounded=0;shadow=0;sketch=0;strokeWidth=1;fontSize=24;fontStyle=0;fillColor=#f5f5f5;fontColor=#333333;strokeColor=#666666;" parent="1" vertex="1">
                    <mxGeometry x="2765" y="-1275.8100000000002" width="250" height="40.97" as="geometry"/>
                </mxCell>
                <mxCell id="185" style="edgeStyle=none;html=1;fontSize=24;fontColor=default;targetPerimeterSpacing=40;sourcePerimeterSpacing=40;strokeWidth=15;strokeColor=#9933FF;startArrow=classic;startFill=1;rounded=1;" parent="1" edge="1">
                    <mxGeometry relative="1" as="geometry">
                        <mxPoint x="1205" y="-320" as="targetPoint"/>
                        <mxPoint x="1485" y="-320" as="sourcePoint"/>
                    </mxGeometry>
                </mxCell>
                <mxCell id="186" style="edgeStyle=none;html=1;fontSize=24;fontColor=default;targetPerimeterSpacing=40;sourcePerimeterSpacing=40;strokeWidth=15;strokeColor=#9933FF;startArrow=classic;startFill=1;rounded=1;" parent="1" edge="1">
                    <mxGeometry relative="1" as="geometry">
                        <mxPoint x="1205" y="-123" as="targetPoint"/>
                        <mxPoint x="1485" y="-123" as="sourcePoint"/>
                    </mxGeometry>
                </mxCell>
                <mxCell id="187" value="Association" style="text;align=center;html=1;verticalAlign=middle;whiteSpace=wrap;rounded=0;shadow=0;sketch=0;strokeWidth=1;fontSize=24;fontStyle=0;fillColor=#f5f5f5;fontColor=#333333;strokeColor=#666666;" parent="1" vertex="1">
                    <mxGeometry x="1225" y="-404.97" width="186" height="40.97" as="geometry"/>
                </mxCell>
                <mxCell id="188" value="Association" style="text;align=center;html=1;verticalAlign=middle;whiteSpace=wrap;rounded=0;shadow=0;sketch=0;strokeWidth=1;fontSize=24;fontStyle=0;fillColor=#f5f5f5;fontColor=#333333;strokeColor=#666666;" parent="1" vertex="1">
                    <mxGeometry x="1225" y="-190" width="186" height="40.97" as="geometry"/>
                </mxCell>
                <mxCell id="191" value="" style="shape=table;startSize=0;container=1;collapsible=0;childLayout=tableLayout;labelBackgroundColor=none;fillStyle=auto;strokeColor=#9933FF;strokeWidth=5;fontSize=32;fillColor=none;gradientColor=none;align=left;" parent="1" vertex="1">
                    <mxGeometry x="285" y="-90" width="535" height="150" as="geometry"/>
                </mxCell>
                <mxCell id="192" value="" style="shape=tableRow;horizontal=0;startSize=0;swimlaneHead=0;swimlaneBody=0;top=0;left=0;bottom=0;right=0;collapsible=0;dropTarget=0;fillColor=none;points=[[0,0.5],[1,0.5]];portConstraint=eastwest;labelBackgroundColor=none;fillStyle=auto;strokeColor=#BC1356;strokeWidth=8;fontSize=32;" parent="191" vertex="1">
                    <mxGeometry width="535" height="75" as="geometry"/>
                </mxCell>
                <mxCell id="193" value="vpc endpoints&amp;nbsp; →&amp;nbsp; Inbound EP" style="shape=partialRectangle;html=1;whiteSpace=wrap;connectable=0;overflow=hidden;fillColor=none;top=0;left=0;bottom=0;right=0;pointerEvents=1;labelBackgroundColor=none;fillStyle=auto;strokeColor=#BC1356;strokeWidth=8;fontSize=32;align=left;spacingLeft=16;" parent="192" vertex="1">
                    <mxGeometry width="535" height="75" as="geometry">
                        <mxRectangle width="535" height="75" as="alternateBounds"/>
                    </mxGeometry>
                </mxCell>
                <mxCell id="195" value="" style="shape=tableRow;horizontal=0;startSize=0;swimlaneHead=0;swimlaneBody=0;top=0;left=0;bottom=0;right=0;collapsible=0;dropTarget=0;fillColor=none;points=[[0,0.5],[1,0.5]];portConstraint=eastwest;labelBackgroundColor=none;fillStyle=auto;strokeColor=#BC1356;strokeWidth=8;fontSize=32;" parent="191" vertex="1">
                    <mxGeometry y="75" width="535" height="75" as="geometry"/>
                </mxCell>
                <mxCell id="196" value="onpremise.private → Outbound EP" style="shape=partialRectangle;html=1;whiteSpace=wrap;connectable=0;overflow=hidden;fillColor=none;top=0;left=0;bottom=0;right=0;pointerEvents=1;labelBackgroundColor=none;fillStyle=auto;strokeColor=#BC1356;strokeWidth=8;fontSize=32;align=left;spacingLeft=16;" parent="195" vertex="1">
                    <mxGeometry width="535" height="75" as="geometry">
                        <mxRectangle width="535" height="75" as="alternateBounds"/>
                    </mxGeometry>
                </mxCell>
                <mxCell id="199" style="edgeStyle=none;html=1;fontSize=24;fontColor=default;targetPerimeterSpacing=40;sourcePerimeterSpacing=40;strokeWidth=15;strokeColor=#9933FF;startArrow=classic;startFill=1;rounded=1;" parent="1" edge="1">
                    <mxGeometry relative="1" as="geometry">
                        <mxPoint x="755" y="-317" as="targetPoint"/>
                        <mxPoint x="1035" y="-317" as="sourcePoint"/>
                    </mxGeometry>
                </mxCell>
                <mxCell id="200" value="Association" style="text;align=center;html=1;verticalAlign=middle;whiteSpace=wrap;rounded=0;shadow=0;sketch=0;strokeWidth=1;fontSize=24;fontStyle=0;fillColor=#f5f5f5;fontColor=#333333;strokeColor=#666666;" parent="1" vertex="1">
                    <mxGeometry x="795" y="-404.97" width="186" height="40.97" as="geometry"/>
                </mxCell>
                <mxCell id="201" style="edgeStyle=none;html=1;fontSize=24;fontColor=default;targetPerimeterSpacing=40;sourcePerimeterSpacing=40;strokeWidth=15;strokeColor=#9933FF;startArrow=classic;startFill=1;rounded=1;" parent="1" edge="1">
                    <mxGeometry relative="1" as="geometry">
                        <mxPoint x="755" y="-50" as="targetPoint"/>
                        <mxPoint x="755" y="-250" as="sourcePoint"/>
                    </mxGeometry>
                </mxCell>
                <mxCell id="202" value="Association" style="text;align=center;html=1;verticalAlign=middle;whiteSpace=wrap;rounded=0;shadow=0;sketch=0;strokeWidth=1;fontSize=24;fontStyle=0;fillColor=#f5f5f5;fontColor=#333333;strokeColor=#666666;" parent="1" vertex="1">
                    <mxGeometry x="625" y="-170.97000000000003" width="250" height="40.97" as="geometry"/>
                </mxCell>
                <mxCell id="206" value="" style="whiteSpace=wrap;html=1;fontSize=32;fillColor=#fff2cc;strokeColor=#d6b656;strokeWidth=8;" parent="1" vertex="1">
                    <mxGeometry x="2750" y="-595.49" width="660" height="890" as="geometry"/>
                </mxCell>
                <mxCell id="210" style="edgeStyle=none;rounded=1;html=1;strokeColor=#009900;strokeWidth=8;fontSize=32;startSize=12;endSize=12;targetPerimeterSpacing=20;sourcePerimeterSpacing=20;" parent="1" source="207" target="13" edge="1">
                    <mxGeometry relative="1" as="geometry"/>
                </mxCell>
                <mxCell id="207" value="DNS Server" style="sketch=0;outlineConnect=0;fontColor=#232F3E;gradientColor=none;fillColor=#232F3D;strokeColor=none;dashed=0;verticalLabelPosition=bottom;verticalAlign=top;align=center;html=1;fontSize=32;fontStyle=0;aspect=fixed;pointerEvents=1;shape=mxgraph.aws4.traditional_server;labelBackgroundColor=none;fillStyle=auto;strokeWidth=5;" parent="1" vertex="1">
                    <mxGeometry x="3010" y="-403" width="111.34" height="193" as="geometry"/>
                </mxCell>
                <mxCell id="217" style="edgeStyle=orthogonalEdgeStyle;rounded=1;html=1;strokeColor=#000000;strokeWidth=8;fontSize=32;startSize=12;endSize=12;targetPerimeterSpacing=20;startArrow=none;" parent="1" source="218" edge="1">
                    <mxGeometry relative="1" as="geometry">
                        <mxPoint x="3066" y="-150" as="targetPoint"/>
                    </mxGeometry>
                </mxCell>
                <mxCell id="208" value="host.onpremise.private" style="sketch=0;outlineConnect=0;fontColor=#232F3E;gradientColor=none;fillColor=#232F3D;strokeColor=none;dashed=0;verticalLabelPosition=bottom;verticalAlign=top;align=center;html=1;fontSize=32;fontStyle=0;aspect=fixed;pointerEvents=1;shape=mxgraph.aws4.client;labelBackgroundColor=none;fillStyle=auto;strokeWidth=5;" parent="1" vertex="1">
                    <mxGeometry x="2993.83" y="49" width="143.68" height="140" as="geometry"/>
                </mxCell>
                <mxCell id="211" value="DNS Query&lt;br style=&quot;font-size: 32px;&quot;&gt;awscloud.private" style="text;align=center;html=1;verticalAlign=middle;whiteSpace=wrap;rounded=0;shadow=0;sketch=0;strokeWidth=1;fontSize=32;fontStyle=1;fillColor=#f5f5f5;fontColor=#333333;strokeColor=#666666;" parent="1" vertex="1">
                    <mxGeometry x="2410" y="-444.97" width="300" height="120.97" as="geometry"/>
                </mxCell>
                <mxCell id="215" style="edgeStyle=orthogonalEdgeStyle;rounded=1;html=1;strokeColor=#3333FF;strokeWidth=8;fontSize=32;startSize=12;endSize=12;targetPerimeterSpacing=20;sourcePerimeterSpacing=20;" parent="1" source="14" target="207" edge="1">
                    <mxGeometry relative="1" as="geometry">
                        <Array as="points">
                            <mxPoint x="2190" y="-48"/>
                            <mxPoint x="2190" y="-260"/>
                        </Array>
                    </mxGeometry>
                </mxCell>
                <mxCell id="216" value="DNS Query&lt;br style=&quot;font-size: 32px;&quot;&gt;onpremise.private" style="text;align=center;html=1;verticalAlign=middle;whiteSpace=wrap;rounded=0;shadow=0;sketch=0;strokeWidth=1;fontSize=32;fontStyle=1;fillColor=#f5f5f5;fontColor=#333333;strokeColor=#666666;" parent="1" vertex="1">
                    <mxGeometry x="2410" y="-230.00000000000003" width="300" height="120.97" as="geometry"/>
                </mxCell>
                <mxCell id="219" value="" style="edgeStyle=orthogonalEdgeStyle;rounded=1;html=1;strokeColor=#000000;strokeWidth=8;fontSize=32;startSize=12;endSize=12;sourcePerimeterSpacing=20;endArrow=none;" parent="1" source="208" target="218" edge="1">
                    <mxGeometry relative="1" as="geometry">
                        <mxPoint x="3065.5714285714294" y="-10" as="sourcePoint"/>
                        <mxPoint x="3065.999999999999" y="-150" as="targetPoint"/>
                    </mxGeometry>
                </mxCell>
                <mxCell id="218" value="Domain Lookup" style="text;align=center;html=1;verticalAlign=middle;whiteSpace=wrap;rounded=0;shadow=0;sketch=0;strokeWidth=1;fontSize=32;fontStyle=1;fillColor=#f5f5f5;fontColor=#333333;strokeColor=#666666;" parent="1" vertex="1">
                    <mxGeometry x="2915.67" y="-74" width="300" height="60" as="geometry"/>
                </mxCell>
                <mxCell id="229" value="" style="points=[[0,0],[0.25,0],[0.5,0],[0.75,0],[1,0],[1,0.25],[1,0.5],[1,0.75],[1,1],[0.75,1],[0.5,1],[0.25,1],[0,1],[0,0.75],[0,0.5],[0,0.25]];outlineConnect=0;gradientColor=none;html=1;whiteSpace=wrap;fontSize=32;fontStyle=1;container=1;pointerEvents=0;collapsible=0;recursiveResize=0;shape=mxgraph.aws4.group;grIcon=mxgraph.aws4.group_vpc;strokeColor=#248814;fillColor=none;verticalAlign=top;align=left;spacingLeft=30;fontColor=default;dashed=0;strokeWidth=5;shadow=0;expand=1;" parent="1" vertex="1">
                    <mxGeometry x="510" y="-1217.42" width="1000" height="416.81" as="geometry"/>
                </mxCell>
                <mxCell id="230" value="" style="sketch=0;points=[[0,0,0],[0.25,0,0],[0.5,0,0],[0.75,0,0],[1,0,0],[0,1,0],[0.25,1,0],[0.5,1,0],[0.75,1,0],[1,1,0],[0,0.25,0],[0,0.5,0],[0,0.75,0],[1,0.25,0],[1,0.5,0],[1,0.75,0]];outlineConnect=0;fontColor=#232F3E;gradientColor=none;gradientDirection=north;fillColor=#248814;strokeColor=#ffffff;dashed=0;verticalLabelPosition=bottom;verticalAlign=top;align=center;html=1;fontSize=24;fontStyle=0;aspect=fixed;shape=mxgraph.aws4.resourceIcon;resIcon=mxgraph.aws4.vpc;strokeWidth=5;" parent="229" vertex="1">
                    <mxGeometry x="2" y="1.9722222222222223" width="64" height="64" as="geometry"/>
                </mxCell>
                <mxCell id="231" value="Workload" style="text;strokeColor=none;align=left;fillColor=none;html=1;verticalAlign=middle;whiteSpace=wrap;rounded=0;shadow=0;sketch=0;strokeWidth=5;fontSize=32;fontColor=default;fontStyle=0" parent="229" vertex="1">
                    <mxGeometry x="80" y="16.177222222222223" width="180" height="29.583333333333336" as="geometry"/>
                </mxCell>
                <mxCell id="232" value="host.app2.awscloud.private" style="sketch=0;outlineConnect=0;fontColor=#232F3E;gradientColor=none;fillColor=#D45B07;strokeColor=none;dashed=0;verticalLabelPosition=bottom;verticalAlign=top;align=center;html=1;fontSize=32;fontStyle=1;aspect=fixed;pointerEvents=1;shape=mxgraph.aws4.instance2;strokeWidth=3;" parent="229" vertex="1">
                    <mxGeometry x="311" y="186.81" width="128" height="128" as="geometry"/>
                </mxCell>
                <mxCell id="233" value="" style="whiteSpace=wrap;html=1;strokeColor=#945DF2;strokeWidth=5;fontSize=32;fillColor=none;" parent="1" vertex="1">
                    <mxGeometry x="510" y="-1658.53" width="1010" height="361.11" as="geometry"/>
                </mxCell>
                <mxCell id="234" value="&amp;nbsp;Route53 Profile (Shared)" style="sketch=0;points=[[0,0,0],[0.25,0,0],[0.5,0,0],[0.75,0,0],[1,0,0],[0,1,0],[0.25,1,0],[0.5,1,0],[0.75,1,0],[1,1,0],[0,0.25,0],[0,0.5,0],[0,0.75,0],[1,0.25,0],[1,0.5,0],[1,0.75,0]];outlineConnect=0;fontColor=#232F3E;gradientColor=#945DF2;gradientDirection=north;fillColor=#5A30B5;strokeColor=#ffffff;dashed=0;verticalLabelPosition=middle;verticalAlign=middle;align=left;html=1;fontSize=32;fontStyle=0;aspect=fixed;shape=mxgraph.aws4.resourceIcon;resIcon=mxgraph.aws4.route_53;labelPosition=right;" parent="1" vertex="1">
                    <mxGeometry x="510" y="-1658.53" width="64" height="64" as="geometry"/>
                </mxCell>
                <mxCell id="235" value="Resolver Rules" style="sketch=0;outlineConnect=0;fontColor=#232F3E;gradientColor=none;fillColor=#4D27AA;strokeColor=none;dashed=0;verticalLabelPosition=bottom;verticalAlign=top;align=center;html=1;fontSize=32;fontStyle=0;aspect=fixed;pointerEvents=1;shape=mxgraph.aws4.route_53_resolver;" parent="1" vertex="1">
                    <mxGeometry x="1190" y="-1519.9794444444447" width="64" height="64" as="geometry"/>
                </mxCell>
                <mxCell id="236" value="app2.awscloud.private" style="sketch=0;outlineConnect=0;fontColor=#232F3E;gradientColor=none;fillColor=#4D27AA;strokeColor=none;dashed=0;verticalLabelPosition=bottom;verticalAlign=top;align=center;html=1;fontSize=32;fontStyle=0;pointerEvents=1;shape=mxgraph.aws4.hosted_zone;aspect=fixed;" parent="1" vertex="1">
                    <mxGeometry x="811" y="-1439.9961111111113" width="64" height="63.11" as="geometry"/>
                </mxCell>
                <mxCell id="237" style="edgeStyle=none;html=1;fontSize=24;fontColor=default;targetPerimeterSpacing=40;sourcePerimeterSpacing=40;strokeWidth=15;strokeColor=#9933FF;startArrow=classic;startFill=1;rounded=1;" parent="1" edge="1">
                    <mxGeometry relative="1" as="geometry">
                        <mxPoint x="1185" y="-1157.42" as="targetPoint"/>
                        <mxPoint x="1185" y="-1357.42" as="sourcePoint"/>
                    </mxGeometry>
                </mxCell>
                <mxCell id="238" value="Association" style="text;align=center;html=1;verticalAlign=middle;whiteSpace=wrap;rounded=0;shadow=0;sketch=0;strokeWidth=1;fontSize=24;fontStyle=0;fillColor=#f5f5f5;fontColor=#333333;strokeColor=#666666;" parent="1" vertex="1">
                    <mxGeometry x="1055" y="-1278.39" width="250" height="40.97" as="geometry"/>
                </mxCell>
                <mxCell id="239" style="edgeStyle=none;rounded=1;html=1;strokeWidth=5;fontSize=32;dashed=1;strokeColor=#C7131F;endSize=12;startSize=12;exitX=0.541;exitY=0.002;exitDx=0;exitDy=0;exitPerimeter=0;" parent="1" source="32" edge="1">
                    <mxGeometry relative="1" as="geometry">
                        <mxPoint x="-980" y="-444.97" as="sourcePoint"/>
                        <mxPoint x="390" y="-1334.97" as="targetPoint"/>
                    </mxGeometry>
                </mxCell>
                <mxCell id="204" style="edgeStyle=none;rounded=1;html=1;strokeWidth=5;fontSize=32;dashed=1;strokeColor=#C7131F;endSize=12;startSize=12;exitX=0.626;exitY=-0.273;exitDx=0;exitDy=0;exitPerimeter=0;" parent="1" source="33" edge="1">
                    <mxGeometry relative="1" as="geometry">
                        <mxPoint x="1090" y="-610" as="sourcePoint"/>
                        <mxPoint x="2020" y="-1360" as="targetPoint"/>
                    </mxGeometry>
                </mxCell>
                <mxCell id="205" value="Resource Share" style="text;align=center;html=1;verticalAlign=middle;whiteSpace=wrap;rounded=0;shadow=0;sketch=0;strokeWidth=1;fontSize=32;fontStyle=1;fillColor=#f5f5f5;fontColor=#333333;strokeColor=#666666;" parent="1" vertex="1">
                    <mxGeometry x="420" y="-710" width="720" height="60" as="geometry"/>
                </mxCell>
                <mxCell id="240" value="&amp;nbsp;DataCenter" style="sketch=0;outlineConnect=0;fontColor=#232F3E;gradientColor=none;fillColor=#232F3D;strokeColor=none;dashed=0;verticalLabelPosition=middle;verticalAlign=middle;align=left;html=1;fontSize=32;fontStyle=0;aspect=fixed;pointerEvents=1;shape=mxgraph.aws4.office_building;labelBackgroundColor=none;fillStyle=auto;strokeWidth=5;labelPosition=right;" parent="1" vertex="1">
                    <mxGeometry x="2765" y="-590" width="75" height="117" as="geometry"/>
                </mxCell>
            </root>
        </mxGraphModel>
    </diagram>
</mxfile>